<svg width="1728" height="578" viewBox="0 0 1728 578" fill="none" xmlns="http://www.w3.org/2000/svg">
<g opacity="0.5">
<path d="M1907.54 422.122C1568.84 320.031 1379.51 280.787 1148.95 332.926C918.383 385.066 875.496 447.949 518.598 415.419C161.699 382.889 -191.857 214.898 -191.857 214.898" stroke="rgb(234 179 8)" stroke-opacity="0.5" stroke-width="3" stroke-linecap="round" stroke-linejoin="round"/>
<path d="M1909.49 408.452C1570.79 306.361 1381.46 267.116 1150.9 319.256C920.334 371.395 877.446 434.279 520.548 401.749C163.65 369.219 -189.906 201.227 -189.906 201.227" stroke="rgb(234 179 8)" stroke-opacity="0.5" stroke-width="3" stroke-linecap="round" stroke-linejoin="round"/>
<path d="M1911.44 394.784C1572.74 292.692 1383.41 253.448 1152.85 305.588C922.285 357.727 879.397 420.61 522.499 388.08C165.601 355.55 -187.955 187.559 -187.955 187.559" stroke="rgb(234 179 8)" stroke-opacity="0.5" stroke-width="3" stroke-linecap="round" stroke-linejoin="round"/>
<path d="M1913.39 381.111C1574.69 279.02 1385.36 239.775 1154.8 291.915C924.235 344.054 881.348 406.938 524.45 374.408C167.552 341.878 -186.005 173.886 -186.005 173.886" stroke="rgb(234 179 8)" stroke-opacity="0.5" stroke-width="3" stroke-linecap="round" stroke-linejoin="round"/>
<path d="M1915.34 367.439C1576.64 265.348 1387.31 226.103 1156.75 278.243C926.186 330.382 883.299 393.266 526.401 360.736C169.502 328.206 -184.054 160.214 -184.054 160.214" stroke="rgb(234 179 8)" stroke-opacity="0.5" stroke-width="3" stroke-linecap="round" stroke-linejoin="round"/>
<path d="M1917.29 353.768C1578.6 251.677 1389.26 212.433 1158.7 264.572C928.137 316.712 885.249 379.595 528.351 347.065C171.453 314.535 -182.103 146.543 -182.103 146.543" stroke="rgb(234 179 8)" stroke-opacity="0.5" stroke-width="3" stroke-linecap="round" stroke-linejoin="round"/>
<path d="M1919.24 340.098C1580.55 238.007 1391.21 198.763 1160.65 250.902C930.088 303.042 887.2 365.925 530.302 333.395C173.404 300.865 -180.152 132.873 -180.152 132.873" stroke="rgb(234 179 8)" stroke-opacity="0.5" stroke-width="3" stroke-linecap="round" stroke-linejoin="round"/>
<path d="M1921.19 326.428C1582.5 224.337 1393.16 185.093 1162.6 237.232C932.038 289.372 889.151 352.255 532.253 319.725C175.355 287.195 -178.202 119.204 -178.202 119.204" stroke="rgb(234 179 8)" stroke-opacity="0.5" stroke-width="3" stroke-linecap="round" stroke-linejoin="round"/>
<path d="M1923.15 312.757C1584.45 210.666 1395.11 171.422 1164.55 223.561C933.989 275.701 891.101 338.584 534.203 306.054C177.305 273.524 -176.251 105.533 -176.251 105.533" stroke="rgb(234 179 8)" stroke-opacity="0.5" stroke-width="3" stroke-linecap="round" stroke-linejoin="round"/>
<path d="M1925.1 299.085C1586.4 196.994 1397.06 157.75 1166.5 209.889C935.939 262.029 893.052 324.912 536.154 292.382C179.256 259.852 -174.301 91.8604 -174.301 91.8604" stroke="rgb(234 179 8)" stroke-opacity="0.5" stroke-width="3" stroke-linecap="round" stroke-linejoin="round"/>
</g>
</svg>
